# xmcd CD database file
#
# Track frame offsets:
#	150
#	13675
#	25609
#	38118
#	51518
#	63866
#	74025
#	86144
#	98869
#	123108
#	135565
#	149837
#	162063
#	173002
#	186207
#	199163
#	210956
#	221617
#	233395
#	243012
#	263265
#	277326
#	289329
#	303905
#
# Disc length: 4191 seconds
#
# Revision: 0
# Processed by: cddbd v1.5.2PL0 Copyright (c) Steve Scherf et al.
# Submitted via: CDex 1.51
#
DISCID=58105d18
DTITLE=George Shearing - The Complete Quintet Studio Sessions CD4
DYEAR=1953
DGENRE=Jazz
TTITLE0=Hallelujah
TTITLE1=Undecided
TTITLE2=Mood For Milt
TTITLE3=Drum Trouble
TTITLE4=Love Is Here To Stay
TTITLE5=Easy To Love
TTITLE6=Love Is Just Around The Corner
TTITLE7=Point And Counterpoint
TTITLE8=Tempo De Cencerro
TTITLE9=I'll Wind
TTITLE10=A Sinner Kissed An Angel
TTITLE11=Get Off My Bach
TTITLE12=Stranger In Paradise
TTITLE13=I've Never Been In Love Before
TTITLE14=Minor Trouble
TTITLE15=Basso Profundo
TTITLE16=Mambo Inn
TTITLE17=Drume Negrita
TTITLE18=Cool Mambo
TTITLE19=Caravan
TTITLE20=Adieu
TTITLE21=Nothing New Under The Sun
TTITLE22=Slowly But Surely
TTITLE23=Lullaby Of Birdland
EXTD=YEAR: 1953
EXTT0=
EXTT1=
EXTT2=
EXTT3=
EXTT4=
EXTT5=
EXTT6=
EXTT7=
EXTT8=
EXTT9=
EXTT10=
EXTT11=
EXTT12=
EXTT13=
EXTT14=
EXTT15=
EXTT16=
EXTT17=
EXTT18=
EXTT19=
EXTT20=
EXTT21=
EXTT22=
EXTT23=
PLAYORDER=
